# Blender v2.65 (sub 0) OBJ File: ''
# www.blender.org
v -0.470832 16.881678 0.259747
v -0.187807 16.666113 0.418896
v -0.448808 17.064430 0.524180
v -0.603327 18.747751 0.437458
v -0.315520 18.924599 0.551319
v -0.378912 19.091751 0.042180
v -0.686551 17.445450 -0.567008
v -0.400152 17.401939 -0.904309
v -0.448417 17.128025 -0.643764
v -0.588706 16.970207 -0.039959
v -0.187807 16.936064 -0.133331
v 0.590381 16.881678 0.259747
v 0.707690 16.970207 -0.039959
v 0.757678 17.176502 -0.044185
v -0.663687 17.176502 -0.044185
v 0.086882 19.038406 0.681597
v 0.431098 18.924599 0.551319
v 0.084862 19.171925 0.042180
v 0.083396 17.128025 -0.721686
v 0.080799 17.401939 -0.982230
v 0.514183 17.401939 -0.904309
v 0.083396 16.666113 0.418896
v 0.083396 16.936064 -0.133331
v 0.302866 16.936064 -0.133331
v 0.073104 16.911842 0.682302
v 0.232776 16.911842 0.647843
v 0.671243 18.747751 0.437458
v 0.494490 19.091751 0.042180
v 0.562926 17.128025 -0.643764
v 0.787656 17.463179 -0.598755
v 0.302866 16.666113 0.418896
v 0.536825 17.064430 0.524180
v 0.410302 18.529297 0.759142
v 0.345100 18.223457 0.828410
v 0.785632 18.190041 0.563844
v 0.086882 18.687954 0.951045
v 0.086882 18.235964 0.986882
v -0.689544 18.190041 0.563844
v -0.201478 18.223457 0.801643
v -0.293608 18.522358 0.775171
v -0.845383 18.189901 0.011392
v -0.695884 18.401638 0.477161
v -0.780844 18.592819 -0.537527
v -0.410674 18.767252 -0.781482
v -0.781759 18.264694 -0.589139
v 0.465104 18.441458 -1.007245
v 0.078624 18.457485 -1.079824
v 0.081752 18.831367 -0.864072
v 0.864334 18.282543 -0.619629
v 0.526252 18.767252 -0.781482
v 0.941471 18.189901 0.011392
v 0.775626 18.440418 0.477161
v 0.315587 17.817390 0.865060
v 0.299676 17.509285 0.790115
v 0.570255 17.538382 0.582732
v 0.083317 17.832096 0.891404
v 0.080054 17.509285 0.824575
v -0.520278 17.548159 0.577844
v -0.157322 17.509285 0.790115
v -0.183224 17.817390 0.865060
v -0.777528 17.634354 0.088231
v -0.601169 17.820753 0.571154
v -0.778768 18.029615 -0.594165
v -0.337816 18.171663 -1.078008
v -0.327098 17.918434 -1.084986
v 0.441130 17.918434 -1.084987
v 0.077063 17.918434 -1.162908
v 0.077809 18.171663 -1.155929
v 0.857100 17.882786 -0.670701
v 0.867857 18.068329 -0.647952
v 0.852154 17.634354 0.088231
v 0.673182 17.815649 0.573706
v 0.772770 18.877836 0.006049
v 0.587044 19.013647 -0.468589
v 0.084862 19.102924 -0.496133
v -0.709163 18.877836 0.006049
v -0.471466 19.013647 -0.468589
v -0.857111 18.509064 0.006048
v -0.761545 17.782856 -0.606688
v -0.822825 17.928600 -0.010656
v -0.588706 17.056221 -0.494758
v 0.707690 17.056221 -0.494758
v 0.915622 17.928600 -0.010656
v 0.936853 18.509064 0.006048
v 0.076279 17.184740 0.682664
v -0.090189 16.911842 0.647843
v -0.120854 17.184740 0.648205
v -0.481454 17.296038 0.516743
v -0.735093 17.365780 -0.030572
v -0.722815 17.626017 -0.610615
v -0.366782 17.674412 -1.048049
v 0.480814 17.674412 -1.048050
v 0.831063 17.664616 -0.662573
v 0.804049 17.365780 -0.030572
v 0.552095 17.291571 0.518976
v 0.263334 17.184740 0.648205
v -0.651315 18.866028 -0.400846
v 0.859887 18.592819 -0.537527
v 0.714923 18.866028 -0.400846
v 0.079093 17.674412 -1.125971
v -0.349526 18.441458 -1.007245
v 0.452587 18.171663 -1.078008
vt 0.665928 0.610341
vt 0.714954 0.600956
vt 0.671531 0.650088
vt 0.671634 0.882379
vt 0.704979 0.885373
vt 0.693454 0.916547
vt 0.567472 0.712883
vt 0.518460 0.722650
vt 0.533591 0.642928
vt 0.650540 0.575884
vt 0.665710 0.610521
vt 0.621212 0.628502
vt 0.801776 0.610001
vt 0.845651 0.625825
vt 0.848188 0.667215
vt 0.622032 0.628408
vt 0.619604 0.670910
vt 0.739377 0.885098
vt 0.766854 0.884876
vt 0.739608 0.916171
vt 0.943482 0.632013
vt 0.965581 0.722737
vt 0.943839 0.722808
vt 0.745088 0.600845
vt 0.746249 0.575884
vt 0.816093 0.575884
vt 0.743331 0.626416
vt 0.745001 0.601025
vt 0.759593 0.626570
vt 0.800206 0.882341
vt 0.779750 0.917676
vt 0.928315 0.643858
vt 0.896084 0.712813
vt 0.769350 0.600845
vt 0.801927 0.609758
vt 0.802925 0.646476
vt 0.769316 0.601081
vt 0.764436 0.855009
vt 0.763897 0.829717
vt 0.821210 0.822173
vt 0.739407 0.855284
vt 0.739389 0.829889
vt 0.663208 0.822243
vt 0.710954 0.830101
vt 0.710739 0.855624
vt 0.600579 0.813230
vt 0.656638 0.845904
vt 0.575938 0.847498
vt 0.530002 0.886242
vt 0.562998 0.819342
vt 0.944245 0.853277
vt 0.959199 0.872196
vt 0.928007 0.909689
vt 0.900613 0.819331
vt 0.920388 0.885187
vt 0.867191 0.813138
vt 0.816987 0.848098
vt 0.760015 0.772443
vt 0.765226 0.732172
vt 0.801119 0.734938
vt 0.741077 0.771843
vt 0.739782 0.732069
vt 0.674640 0.732846
vt 0.717432 0.731942
vt 0.721127 0.772451
vt 0.602597 0.741450
vt 0.664415 0.773051
vt 0.564410 0.786116
vt 0.516016 0.814309
vt 0.514386 0.778191
vt 0.947879 0.778070
vt 0.965992 0.778124
vt 0.962746 0.823080
vt 0.899943 0.755564
vt 0.900263 0.786038
vt 0.860481 0.739549
vt 0.807118 0.772265
vt 0.829285 0.918957
vt 0.768586 0.968366
vt 0.739348 0.963430
vt 0.645300 0.911916
vt 0.710375 0.957078
vt 0.613471 0.861608
vt 0.565702 0.755704
vt 0.598782 0.765711
vt 0.573178 0.654591
vt 0.572841 0.654853
vt 0.533783 0.642689
vt 0.815951 0.560537
vt 0.745767 0.560537
vt 0.745767 0.575714
vt 0.845857 0.625782
vt 0.889321 0.656549
vt 0.889240 0.656464
vt 0.864578 0.764675
vt 0.860127 0.863066
vt 0.743567 0.673439
vt 0.723236 0.626225
vt 0.720585 0.673278
vt 0.668673 0.689609
vt 0.609341 0.710442
vt 0.566664 0.732442
vt 0.516599 0.748020
vt 0.945684 0.748051
vt 0.897846 0.732341
vt 0.853986 0.709416
vt 0.805032 0.688838
vt 0.762166 0.673570
vt 0.800060 0.882444
vt 0.767147 0.884722
vt 0.671624 0.882342
vt 0.621489 0.940025
vt 0.889257 0.952552
vt 0.888130 0.848880
vt 0.851488 0.951471
vt 0.715107 0.600845
vt 0.649639 0.560537
vt 0.956724 0.609957
vt 0.992449 0.722650
vt 0.965769 0.748037
vt 0.990588 0.748020
vt 0.988375 0.778191
vt 0.977677 0.895574
vt 0.937422 0.939967
vt 0.704992 0.885565
vt 0.517798 0.853768
vt 0.983262 0.834288
vt 0.946143 0.814011
vt 0.851403 0.951499
vt 0.621419 0.940112
vt 0.815951 0.575714
vt 0.928137 0.643876
vt 0.739545 0.885099
vt 0.645277 0.911926
vt 0.585001 0.932816
vt 0.884031 0.927022
vt 0.829261 0.918927
vt 0.649639 0.575714
vt 0.895715 0.984101
vn -0.709220 -0.699942 0.083926
vn -0.308664 -0.926237 0.216254
vn -0.690573 -0.257179 0.675954
vn -0.708029 0.476974 0.520707
vn -0.472182 0.700095 0.535600
vn -0.358867 0.923704 0.134007
vn -0.878933 -0.298624 -0.371838
vn -0.447066 -0.481429 -0.753838
vn -0.322977 -0.717551 -0.617023
vn -0.082034 -0.938627 -0.334941
vn -0.671438 -0.740440 -0.029481
vn 0.737785 -0.665120 0.114963
vn 0.712546 -0.701468 -0.012268
vn 0.964385 -0.222571 0.142674
vn -0.940092 -0.323222 0.108249
vn 0.027192 0.833735 0.551439
vn 0.533341 0.671010 0.515000
vn 0.011536 0.996948 0.076785
vn 0.005158 -0.829402 -0.558580
vn 0.007294 -0.573748 -0.818995
vn 0.443007 -0.487625 -0.752281
vn 0.000336 -0.985076 0.172063
vn 0.000000 -0.926786 -0.375561
vn 0.081362 -0.938719 -0.334910
vn 0.000000 -0.381085 0.924528
vn 0.302469 -0.380352 0.873959
vn 0.726707 0.471328 0.499680
vn 0.403211 0.904538 0.138432
vn 0.317667 -0.719138 -0.617969
vn 0.886074 -0.305307 -0.348704
vn 0.313150 -0.925016 0.215003
vn 0.712088 -0.215369 0.668203
vn 0.577013 0.215888 0.787652
vn 0.507157 0.002655 0.861843
vn 0.799219 -0.009339 0.600940
vn 0.042299 0.344157 0.937925
vn 0.011017 -0.084933 0.996307
vn -0.777184 -0.006561 0.629231
vn -0.475326 -0.047578 0.878506
vn -0.526627 0.181555 0.830439
vn -0.993408 -0.053377 0.101321
vn -0.829157 0.203192 0.520707
vn -0.848262 0.285501 -0.445967
vn -0.441023 0.557970 -0.702933
vn -0.894223 0.059084 -0.443678
vn 0.462447 0.324839 -0.824946
vn 0.008698 0.377361 -0.925993
vn 0.010437 0.673208 -0.739372
vn 0.892850 0.112796 -0.435926
vn 0.469893 0.557817 -0.684103
vn 0.994598 -0.032197 0.098453
vn 0.819880 0.248878 0.515549
vn 0.376141 -0.084780 0.922666
vn 0.373486 -0.305185 0.875973
vn 0.736290 -0.233375 0.635121
vn -0.002594 -0.106601 0.994293
vn 0.006134 -0.312723 0.949797
vn -0.713981 -0.240150 0.657643
vn -0.314707 -0.316507 0.894833
vn -0.336406 -0.047639 0.940489
vn -0.962828 -0.171178 0.208808
vn -0.758965 -0.142460 0.635334
vn -0.915708 -0.027345 -0.400861
vn -0.471145 0.103549 -0.875942
vn -0.462783 -0.032441 -0.885861
vn 0.455367 -0.030396 -0.889767
vn 0.009369 -0.060579 -0.998108
vn 0.009705 0.139805 -0.990112
vn 0.907407 -0.060976 -0.415723
vn 0.908689 0.022797 -0.416822
vn 0.954283 -0.198798 0.223151
vn 0.768487 -0.195196 0.609333
vn 0.793634 0.596515 0.119480
vn 0.500412 0.786004 -0.362926
vn 0.009613 0.925047 -0.379681
vn -0.777825 0.617237 0.118168
vn -0.427564 0.824091 -0.371471
vn -0.978484 0.174841 0.109378
vn -0.914914 -0.122776 -0.384472
vn -0.988952 -0.113163 0.095462
vn -0.579608 -0.704428 -0.409619
vn 0.603259 -0.692862 -0.394879
vn 0.983642 -0.152257 0.096042
vn 0.970763 0.214209 0.108005
vn 0.004578 -0.222053 0.975005
vn -0.264687 -0.378704 0.886837
vn -0.280831 -0.209021 0.936705
vn -0.727165 -0.227119 0.647755
vn -0.953124 -0.283914 0.104282
vn -0.890652 -0.230171 -0.392071
vn -0.473281 -0.218329 -0.853420
vn 0.461837 -0.224189 -0.858150
vn 0.901852 -0.199377 -0.383221
vn 0.960173 -0.242622 0.138340
vn 0.752586 -0.185278 0.631825
vn 0.320780 -0.206305 0.924406
vn -0.755028 0.594226 -0.277047
vn 0.861049 0.322642 -0.393017
vn 0.802972 0.538835 -0.254646
vn 0.009186 -0.301859 -0.953276
vn -0.453749 0.328623 -0.828272
vn 0.473159 0.106357 -0.874508
s 1
f 1/1/1 2/2/2 3/3/3
f 4/4/4 5/5/5 6/6/6
f 7/7/7 8/8/8 9/9/9
f 11/10/10 1/11/1 10/12/11
f 12/13/12 13/14/13 14/15/14
f 10/16/11 1/1/1 15/17/15
f 16/18/16 17/19/17 18/20/18
f 19/21/19 20/22/20 21/23/21
f 22/24/22 23/25/23 24/26/24
f 25/27/25 22/28/22 26/29/26
f 17/19/17 27/30/27 28/31/28
f 29/32/29 21/23/21 30/33/30
f 31/34/31 24/26/24 12/35/12
f 32/36/32 26/29/26 31/37/31
f 33/38/33 34/39/34 35/40/35
f 36/41/36 37/42/37 33/38/33
f 38/43/38 39/44/39 40/45/40
f 41/46/41 38/43/38 42/47/42
f 43/48/43 44/49/44 45/50/45
f 46/51/46 47/52/47 48/53/48
f 49/54/49 46/51/46 50/55/50
f 35/40/35 51/56/51 52/57/52
f 53/58/53 54/59/54 55/60/55
f 56/61/56 57/62/57 53/58/53
f 58/63/58 59/64/59 60/65/60
f 61/66/61 58/63/58 62/67/62
f 63/68/63 64/69/64 65/70/65
f 66/71/66 67/72/67 68/73/68
f 69/74/69 66/71/66 70/75/70
f 55/60/55 71/76/71 72/77/72
f 28/31/28 73/78/73 74/79/74
f 18/20/18 28/31/28 75/80/75
f 76/81/76 6/6/6 77/82/77
f 45/50/45 41/46/41 78/83/78
f 79/84/79 61/66/61 80/85/80
f 81/86/81 10/16/11 15/17/15
f 81/87/81 9/88/9 11/10/10
f 24/89/24 23/90/23 19/91/19
f 13/92/13 24/26/24 82/93/82
f 14/15/14 13/14/13 82/94/82
f 83/95/83 71/76/71 69/74/69
f 84/96/84 51/56/51 49/54/49
f 85/97/85 25/27/25 26/29/26
f 3/3/3 86/98/86 87/99/87
f 15/17/15 3/3/3 88/100/88
f 7/7/7 15/17/15 89/101/89
f 90/102/90 91/103/91 8/8/8
f 21/23/21 20/22/20 92/104/92
f 30/33/30 21/23/21 93/105/93
f 94/106/94 14/15/14 30/33/30
f 32/36/32 14/15/14 95/107/95
f 96/108/96 26/29/26 32/36/32
f 33/38/33 52/57/52 27/109/27
f 36/41/36 33/38/33 17/110/17
f 42/47/42 40/45/40 4/111/4
f 78/83/78 42/47/42 4/111/4
f 43/48/43 78/83/78 97/112/97
f 44/49/44 43/48/43 97/112/97
f 50/55/50 48/53/48 75/113/75
f 98/114/98 50/55/50 99/115/99
f 84/96/84 98/114/98 99/115/99
f 27/109/27 52/57/52 84/96/84
f 40/45/40 39/44/39 37/42/37
f 60/65/60 59/64/59 57/62/57
f 87/99/87 86/98/86 85/97/85
f 86/98/86 2/2/2 22/28/22
f 2/116/2 11/10/10 23/25/23
f 19/91/19 23/90/23 11/117/10
f 9/118/9 8/119/8 19/21/19
f 100/120/100 20/22/20 91/121/91
f 68/73/68 67/72/67 65/122/65
f 48/53/48 47/52/47 101/123/101
f 48/53/48 44/124/44 75/113/75
f 6/6/6 18/20/18 75/80/75
f 5/5/5 16/18/16 18/20/18
f 40/45/40 36/41/36 5/125/5
f 54/59/54 96/108/96 95/107/95
f 57/62/57 85/97/85 54/59/54
f 59/64/59 87/99/87 85/97/85
f 88/100/88 87/99/87 59/64/59
f 89/101/89 88/100/88 61/66/61
f 90/102/90 89/101/89 61/66/61
f 79/84/79 65/70/65 91/103/91
f 67/72/67 100/120/100 65/122/65
f 92/104/92 100/120/100 66/71/66
f 93/105/93 92/104/92 69/74/69
f 71/76/71 94/106/94 93/105/93
f 95/107/95 94/106/94 71/76/71
f 34/39/34 53/58/53 72/77/72
f 37/42/37 56/61/56 34/39/34
f 39/44/39 60/65/60 56/61/56
f 62/67/62 60/65/60 39/44/39
f 80/85/80 62/67/62 38/43/38
f 63/68/63 80/85/80 41/46/41
f 45/50/45 101/126/101 64/69/64
f 47/52/47 68/73/68 64/127/64
f 102/128/102 68/73/68 47/52/47
f 70/75/70 102/128/102 49/54/49
f 51/56/51 83/95/83 70/75/70
f 72/77/72 83/95/83 35/40/35
f 2/2/2 86/98/86 3/3/3
f 76/81/76 4/4/4 6/6/6
f 81/86/81 7/7/7 9/9/9
f 2/116/2 1/11/1 11/10/10
f 32/36/32 12/13/12 14/15/14
f 1/1/1 3/3/3 15/17/15
f 17/19/17 28/31/28 18/20/18
f 29/32/29 19/21/19 21/23/21
f 31/34/31 22/24/22 24/26/24
f 22/28/22 31/37/31 26/29/26
f 27/30/27 73/78/73 28/31/28
f 82/94/82 29/32/29 30/33/30
f 24/26/24 13/92/13 12/35/12
f 12/13/12 32/36/32 31/37/31
f 52/57/52 33/38/33 35/40/35
f 37/42/37 34/39/34 33/38/33
f 42/47/42 38/43/38 40/45/40
f 78/83/78 41/46/41 42/47/42
f 44/49/44 101/126/101 45/50/45
f 50/55/50 46/51/46 48/53/48
f 98/114/98 49/54/49 50/55/50
f 51/56/51 84/96/84 52/57/52
f 72/77/72 53/58/53 55/60/55
f 57/62/57 54/59/54 53/58/53
f 62/67/62 58/63/58 60/65/60
f 80/85/80 61/66/61 62/67/62
f 79/84/79 63/68/63 65/70/65
f 102/128/102 66/71/66 68/73/68
f 66/71/66 102/128/102 70/75/70
f 71/76/71 83/95/83 72/77/72
f 73/78/73 99/129/99 74/79/74
f 28/31/28 74/79/74 75/80/75
f 97/130/97 76/81/76 77/82/77
f 43/48/43 45/50/45 78/83/78
f 63/68/63 79/84/79 80/85/80
f 7/7/7 81/86/81 15/17/15
f 10/12/11 81/87/81 11/10/10
f 29/131/29 24/89/24 19/91/19
f 24/26/24 29/132/29 82/93/82
f 30/33/30 14/15/14 82/94/82
f 70/75/70 83/95/83 69/74/69
f 98/114/98 84/96/84 49/54/49
f 96/108/96 85/97/85 26/29/26
f 88/100/88 3/3/3 87/99/87
f 89/101/89 15/17/15 88/100/88
f 90/102/90 7/7/7 89/101/89
f 7/7/7 90/102/90 8/8/8
f 20/22/20 100/120/100 92/104/92
f 21/23/21 92/104/92 93/105/93
f 93/105/93 94/106/94 30/33/30
f 14/15/14 94/106/94 95/107/95
f 95/107/95 96/108/96 32/36/32
f 17/110/17 33/38/33 27/109/27
f 16/133/16 36/41/36 17/110/17
f 40/45/40 5/125/5 4/111/4
f 76/134/76 78/83/78 4/111/4
f 78/83/78 76/134/76 97/112/97
f 77/135/77 44/49/44 97/112/97
f 74/136/74 50/55/50 75/113/75
f 50/55/50 74/136/74 99/115/99
f 73/137/73 84/96/84 99/115/99
f 73/137/73 27/109/27 84/96/84
f 36/41/36 40/45/40 37/42/37
f 56/61/56 60/65/60 57/62/57
f 86/98/86 25/27/25 85/97/85
f 25/27/25 86/98/86 22/28/22
f 22/24/22 2/116/2 23/25/23
f 9/138/9 19/91/19 11/117/10
f 8/119/8 20/22/20 19/21/19
f 20/22/20 8/119/8 91/121/91
f 64/127/64 68/73/68 65/122/65
f 44/124/44 48/53/48 101/123/101
f 44/124/44 77/139/77 75/113/75
f 77/82/77 6/6/6 75/80/75
f 6/6/6 5/5/5 18/20/18
f 36/41/36 16/133/16 5/125/5
f 55/60/55 54/59/54 95/107/95
f 85/97/85 96/108/96 54/59/54
f 57/62/57 59/64/59 85/97/85
f 58/63/58 88/100/88 59/64/59
f 88/100/88 58/63/58 61/66/61
f 79/84/79 90/102/90 61/66/61
f 90/102/90 79/84/79 91/103/91
f 100/120/100 91/121/91 65/122/65
f 100/120/100 67/72/67 66/71/66
f 92/104/92 66/71/66 69/74/69
f 69/74/69 71/76/71 93/105/93
f 55/60/55 95/107/95 71/76/71
f 35/40/35 34/39/34 72/77/72
f 56/61/56 53/58/53 34/39/34
f 37/42/37 39/44/39 56/61/56
f 38/43/38 62/67/62 39/44/39
f 41/46/41 80/85/80 38/43/38
f 45/50/45 63/68/63 41/46/41
f 63/68/63 45/50/45 64/69/64
f 101/123/101 47/52/47 64/127/64
f 46/51/46 102/128/102 47/52/47
f 102/128/102 46/51/46 49/54/49
f 49/54/49 51/56/51 70/75/70
f 83/95/83 51/56/51 35/40/35
