# Blender v2.65 (sub 0) OBJ File: ''
# www.blender.org
v 0.795100 -0.080910 -0.230285
v 1.425311 -0.085894 -0.149905
v 0.785909 0.012814 0.049262
v 0.363102 -0.079795 -0.250971
v 0.819133 10.655187 -1.263088
v 1.221068 11.410011 -0.775864
v 1.404244 9.903597 -0.879799
v 1.440238 11.423847 -0.183032
v 1.265775 11.439016 0.252756
v 1.448950 9.821832 0.399272
v 0.543192 10.648294 0.772899
v 0.139703 9.676294 0.233064
v 0.786712 9.149076 0.680178
v 0.189795 9.780752 -0.359911
v 0.116897 9.034237 -0.215075
v 0.337894 9.876033 -1.177997
v 0.816002 9.216994 -1.097078
v 1.393101 8.496931 -0.963920
v 1.623413 9.864594 -0.381626
v 1.614246 8.344839 -0.211489
v 1.441949 8.178098 0.399270
v 0.096156 8.998718 0.194344
v 0.779684 8.186747 0.680177
v 0.169562 8.365238 -0.157146
v 0.243087 9.066636 -0.865731
v 0.806183 8.505580 -0.986312
v 1.210731 7.250993 -0.803887
v 1.436178 7.250854 -0.176580
v 1.268597 7.250703 0.297004
v 0.191851 8.198500 0.194344
v 0.793106 7.257368 0.493754
v 0.384512 7.230733 -0.134706
v 0.283357 8.517328 -0.754963
v 0.528379 7.230869 -0.643690
v 0.813525 7.257656 -0.758351
v 0.818359 6.753068 -0.750617
v 1.541506 6.745169 -0.125889
v 0.794645 6.752734 0.596788
v 0.373834 7.230585 0.119396
v 0.285812 6.754465 0.162010
v 0.298214 6.754638 -0.133104
v 1.318391 6.745329 -0.759336
v 1.237282 5.816031 -0.809196
v 1.371368 6.744994 0.354424
v 1.294743 5.815776 0.301584
v 0.810886 5.821645 0.502104
v 0.366921 5.822957 0.122752
v 0.443652 6.754796 -0.679496
v 0.521738 5.823207 -0.646815
v 0.831577 5.821898 -0.766703
v 0.805993 5.001763 -1.104004
v 1.462536 5.815909 -0.177172
v 1.443049 5.131119 0.188984
v 0.779451 5.138650 0.470492
v 0.377742 5.823088 -0.134739
v 0.209938 5.140330 -0.016136
v 0.370606 5.140653 -0.731468
v 1.394266 4.994235 -1.081128
v 0.807941 4.263064 -1.199395
v 1.615380 5.059533 -0.373097
v 1.431759 4.255418 0.115831
v 0.781844 4.262748 0.387591
v 0.223818 5.140499 -0.245264
v 0.221888 4.264384 -0.086126
v 0.382111 4.264700 -0.787068
v 1.382315 4.255735 -1.184386
v 1.261313 3.286318 -1.017627
v 1.603745 4.255584 -0.369006
v 1.485933 3.279102 -0.405488
v 0.806074 3.134114 0.289966
v 0.342891 3.135598 -0.027339
v 0.235536 4.264550 -0.307728
v 0.354180 3.287233 -0.357428
v 0.498603 3.294448 -0.833239
v 0.827661 3.292965 -1.005789
v 0.846534 1.320244 -0.727352
v 1.317445 3.127466 0.051466
v 1.374228 1.251685 -0.230577
v 0.901311 1.307512 0.306662
v 0.530029 1.258526 -0.295312
v 1.123067 1.314651 -0.612981
v 0.803484 0.621327 -0.967185
v 1.184223 1.102743 0.140502
v 1.446457 0.553416 -0.028198
v 1.288734 0.454631 1.180633
v 0.939940 0.575770 1.406823
v 1.479462 0.238091 1.344972
v 0.611376 0.470320 1.316610
v 0.906083 0.238275 1.710725
v 0.534622 1.154240 0.067909
v 0.363102 0.592422 -0.380534
v 0.525839 1.321494 -0.626102
v 0.426378 0.622438 -0.629892
v 0.861262 0.763784 0.758357
v 1.446457 0.012212 0.055917
v 1.493264 -0.081191 0.519960
v 1.493264 0.307849 0.581354
v 1.302536 0.605444 0.534685
v 0.612649 0.602510 0.664595
v 0.293732 0.559515 -0.107161
v 0.293732 0.018312 0.041235
v 0.421921 -0.084125 0.531536
v 0.785909 -0.081020 0.764862
v 1.479462 -0.080676 1.432544
v 0.420647 -0.064987 1.568521
v 0.421921 0.304917 0.592930
v 1.425311 0.586326 -0.322841
v 1.406022 0.616341 -0.591599
v 0.803484 -0.080806 -0.878921
v 0.420647 0.253779 1.480949
v 0.426378 -0.079693 -0.529126
v 1.406022 -0.085791 -0.490834
v 0.906083 -0.080492 1.798297
vt 0.868588 0.025011
vt 0.883859 0.025409
vt 0.868267 0.040989
vt 0.853502 0.024381
vt 0.501133 0.440243
vt 0.454515 0.473839
vt 0.446628 0.406791
vt 0.376745 0.474455
vt 0.320528 0.475130
vt 0.324434 0.403152
vt 0.248554 0.439936
vt 0.200348 0.396674
vt 0.264882 0.373208
vt 0.143045 0.401323
vt 0.158448 0.368097
vt 0.097906 0.405564
vt 0.043458 0.440243
vt 0.044176 0.376231
vt 0.501852 0.376231
vt 0.451784 0.344182
vt 0.397149 0.405055
vt 0.381189 0.337412
vt 0.313627 0.329991
vt 0.193258 0.366516
vt 0.253953 0.330376
vt 0.164901 0.338320
vt 0.124005 0.369539
vt 0.045592 0.344567
vt 0.503267 0.344567
vt 0.457201 0.288727
vt 0.365520 0.288721
vt 0.307365 0.306427
vt 0.187984 0.330899
vt 0.253850 0.306850
vt 0.162087 0.287825
vt 0.132257 0.345090
vt 0.136659 0.287831
vt 0.504201 0.289023
vt 0.503590 0.266565
vt 0.361556 0.266213
vt 0.254684 0.274806
vt 0.192656 0.305149
vt 0.190616 0.274916
vt 0.159727 0.266635
vt 0.046525 0.289023
vt 0.045914 0.266565
vt 0.445122 0.266220
vt 0.455127 0.224858
vt 0.311631 0.274315
vt 0.319600 0.220845
vt 0.266018 0.221218
vt 0.191717 0.221301
vt 0.124619 0.266642
vt 0.126081 0.225178
vt 0.501602 0.225120
vt 0.502675 0.188616
vt 0.365953 0.224853
vt 0.322836 0.194374
vt 0.259613 0.194709
vt 0.161849 0.225172
vt 0.184066 0.194784
vt 0.043926 0.225120
vt 0.112270 0.194798
vt 0.446889 0.188281
vt 0.502901 0.155738
vt 0.372894 0.191188
vt 0.316755 0.155398
vt 0.247375 0.155724
vt 0.152510 0.194791
vt 0.169058 0.155797
vt 0.044999 0.188616
vt 0.112749 0.155811
vt 0.446506 0.155412
vt 0.446907 0.118099
vt 0.373218 0.155405
vt 0.373373 0.111943
vt 0.248513 0.105490
vt 0.169839 0.105556
vt 0.151879 0.155804
vt 0.152826 0.112305
vt 0.045226 0.155738
vt 0.112351 0.118461
vt 0.501605 0.118395
vt 0.507345 0.025587
vt 0.317265 0.105194
vt 0.375069 0.021591
vt 0.268964 0.025577
vt 0.162275 0.021863
vt 0.043929 0.118395
vt 0.049669 0.025587
vt 0.984725 0.164729
vt 0.965970 0.164390
vt 0.984555 0.115834
vt 0.936732 0.158613
vt 0.923260 0.152279
vt 0.915378 0.111207
vt 0.879765 0.104476
vt 0.869030 0.112730
vt 0.881917 0.089721
vt 0.860283 0.105545
vt 0.868104 0.089734
vt 0.813631 0.152695
vt 0.797369 0.159028
vt 0.800018 0.113865
vt 0.781483 0.164805
vt 0.768157 0.164729
vt 0.782245 0.115910
vt 0.855946 0.160480
vt 0.865226 0.130238
vt 0.884597 0.033581
vt 0.883270 0.053231
vt 0.900332 0.098994
vt 0.893630 0.126048
vt 0.855884 0.160359
vt 0.846855 0.119072
vt 0.818827 0.111623
vt 0.853129 0.036022
vt 0.854100 0.052651
vt 0.868130 0.051360
vt 0.880936 0.066517
vt 0.858146 0.067581
vt 0.837676 0.098794
vt 0.865536 0.130061
vt 0.934300 0.113449
vt 0.934525 0.066174
vt 0.957530 0.115495
vt 0.984547 0.066520
vt 0.767987 0.115834
vt 0.767977 0.066520
vt 0.799218 0.066589
vt 0.816382 0.066581
vt 0.857422 0.090790
vt 0.834716 0.066294
vt 0.858132 0.067598
vt 0.880925 0.066529
vt 0.902766 0.066494
vt 0.915955 0.066166
vt 0.127808 0.025636
vt 0.782177 0.066596
vt 0.868881 0.008618
vt 0.855711 0.012446
vt 0.883185 0.013613
vt 0.957606 0.066181
vt 0.444418 0.025365
vt 0.318237 0.017455
vt 0.197357 0.017726
vt 0.893437 0.125889
vt 0.868076 0.066519
vt 0.868088 0.066541
vn -0.018830 -0.987487 0.156407
vn 0.650197 -0.749016 0.127110
vn -0.012909 -0.996338 0.084475
vn -0.657094 -0.753563 -0.018555
vn 0.508805 0.031770 -0.860256
vn 0.860256 0.147404 -0.488052
vn 0.738456 0.035615 -0.673330
vn 0.989166 0.145177 0.021546
vn 0.804559 0.143315 0.576281
vn 0.768212 0.049654 0.638234
vn 0.215094 0.038331 0.975829
vn -0.860530 -0.030305 0.508438
vn -0.093814 -0.024476 0.995270
vn -0.988464 0.065218 -0.136509
vn -0.992187 -0.011933 -0.123966
vn -0.401502 -0.133000 -0.906125
vn 0.015320 -0.123539 -0.992218
vn 0.618793 -0.111637 -0.777551
vn 0.992767 0.063478 -0.101627
vn 0.995727 -0.089297 -0.023225
vn 0.751701 -0.100681 0.651753
vn -0.908780 -0.021363 0.416669
vn -0.134220 -0.105502 0.985290
vn -0.981903 -0.146123 -0.120334
vn -0.784753 -0.129185 -0.606128
vn -0.185064 -0.160222 -0.969543
vn 0.500290 -0.080569 -0.862056
vn 0.999725 0.010315 -0.019532
vn 0.716483 0.007630 0.697531
vn -0.895413 -0.154607 0.417463
vn -0.169378 -0.002838 0.985534
vn -0.987640 -0.002594 -0.156621
vn -0.777276 -0.180273 -0.602741
vn -0.716758 -0.037233 -0.696280
vn -0.242744 -0.100040 -0.964904
vn -0.145695 0.001709 -0.989319
vn 0.998108 0.059358 0.015870
vn -0.149419 0.045534 0.987701
vn -0.921628 0.004242 0.388012
vn -0.916623 0.046907 0.396954
vn -0.987762 0.046022 -0.148808
vn 0.616443 0.027802 -0.786889
vn 0.532182 0.204138 -0.821619
vn 0.731437 0.058535 0.679342
vn 0.700980 -0.035585 0.712241
vn -0.147526 -0.071169 0.986480
vn -0.900540 0.005463 0.434706
vn -0.691244 0.044038 -0.721244
vn -0.717765 0.100925 -0.688894
vn -0.258126 0.169958 -0.951018
vn -0.315897 0.211524 -0.924894
vn 0.997986 0.062014 0.012909
vn 0.758751 -0.004151 0.651326
vn -0.160527 -0.066073 0.984802
vn -0.985015 0.080020 -0.152715
vn -0.928495 0.048830 0.368084
vn -0.808039 0.163762 -0.565844
vn 0.607196 0.205176 -0.767571
vn -0.339702 -0.008545 -0.940489
vn 0.994720 0.097751 -0.030549
vn 0.736412 -0.082186 0.671499
vn -0.148778 -0.079531 0.985656
vn -0.977508 0.118931 -0.174017
vn -0.926725 -0.062960 0.370342
vn -0.850490 -0.019074 -0.525590
vn 0.601459 -0.050935 -0.797235
vn 0.562304 -0.184301 -0.806116
vn 0.997009 -0.071261 0.028993
vn 0.993988 -0.104709 -0.031526
vn -0.091769 -0.047578 0.994629
vn -0.901334 -0.080538 0.425520
vn -0.982513 -0.055300 -0.177740
vn -0.979339 -0.088992 -0.181555
vn -0.765404 -0.112369 -0.633625
vn -0.250862 -0.166845 -0.953520
vn -0.009888 0.035279 -0.999298
vn 0.744346 -0.052095 0.665700
vn 0.995819 0.090487 -0.009522
vn 0.017335 0.277566 0.960540
vn -0.998718 0.049715 0.006928
vn 0.650929 0.054781 -0.757134
vn -0.096133 0.084658 -0.991729
vn 0.779504 0.259774 0.569964
vn 0.986663 0.152623 0.056337
vn 0.584246 0.778191 0.230262
vn 0.065615 0.844295 0.531816
vn 0.822626 0.392041 0.411786
vn -0.542161 0.766198 0.344859
vn 0.048616 0.458663 0.887265
vn -0.893124 0.223487 0.390301
vn -0.969604 0.138157 -0.201788
vn -0.803552 -0.006806 -0.595172
vn -0.849422 0.090548 -0.519852
vn -0.067202 0.870449 0.487625
vn 0.781182 -0.624195 -0.009064
vn 0.693747 -0.713218 -0.099948
vn 0.960692 0.273843 0.044984
vn 0.729057 0.621998 0.285531
vn -0.764367 0.563036 0.314158
vn -0.980895 0.194433 -0.003662
vn -0.807886 -0.586505 0.057314
vn -0.627552 -0.778558 0.003815
vn 0.001862 -0.999146 -0.040864
vn 0.696432 -0.557451 0.451888
vn -0.685659 -0.527146 0.501938
vn -0.954527 0.248085 0.165227
vn 0.997162 0.035310 -0.066286
vn 0.841029 0.060671 -0.537522
vn -0.072878 -0.640156 -0.764733
vn -0.779992 0.425886 0.458480
vn -0.648671 -0.672384 -0.356456
vn 0.671041 -0.646809 -0.362316
vn 0.045503 -0.514512 0.856258
s 1
f 1/1/1 2/2/2 3/3/3
f 1/1/1 3/3/3 4/4/4
f 5/5/5 6/6/6 7/7/7
f 8/8/8 9/9/9 10/10/10
f 9/9/9 11/11/11 10/10/10
f 11/11/11 12/12/12 13/13/13
f 12/12/12 14/14/14 15/15/15
f 16/16/16 5/17/5 17/18/17
f 17/19/17 7/7/7 18/20/18
f 19/21/19 10/10/10 20/22/20
f 10/10/10 13/13/13 21/23/21
f 13/13/13 22/24/22 23/25/23
f 22/24/22 15/15/15 24/26/24
f 25/27/25 17/18/17 26/28/26
f 26/29/26 18/20/18 27/30/27
f 20/22/20 21/23/21 28/31/28
f 21/23/21 23/25/23 29/32/29
f 23/25/23 30/33/30 31/34/31
f 30/33/30 24/26/24 32/35/32
f 33/36/33 26/28/26 34/37/34
f 35/38/35 27/30/27 36/39/36
f 28/31/28 29/32/29 37/40/37
f 29/32/29 31/34/31 38/41/38
f 31/34/31 39/42/39 40/43/40
f 39/42/39 32/35/32 41/44/41
f 34/37/34 35/45/35 36/46/36
f 36/39/36 42/47/42 43/48/43
f 37/40/37 44/49/44 45/50/45
f 44/49/44 38/41/38 46/51/46
f 38/41/38 40/43/40 46/51/46
f 40/43/40 41/44/41 47/52/47
f 48/53/48 36/46/36 49/54/49
f 50/55/50 43/48/43 51/56/51
f 52/57/52 45/50/45 53/58/53
f 45/50/45 46/51/46 54/59/54
f 46/51/46 47/52/47 54/59/54
f 47/52/47 55/60/55 56/61/56
f 49/54/49 50/62/50 57/63/57
f 51/56/51 58/64/58 59/65/59
f 60/66/60 53/58/53 61/67/61
f 53/58/53 54/59/54 62/68/62
f 54/59/54 56/61/56 62/68/62
f 56/61/56 63/69/63 64/70/64
f 57/63/57 51/71/51 65/72/65
f 59/65/59 66/73/66 67/74/67
f 68/75/68 61/67/61 69/76/69
f 61/67/61 62/68/62 70/77/70
f 62/68/62 64/70/64 71/78/71
f 64/70/64 72/79/72 73/80/73
f 65/72/65 59/81/59 74/82/74
f 75/83/75 67/74/67 76/84/76
f 69/76/69 77/85/77 78/86/78
f 77/85/77 70/77/70 79/87/79
f 70/77/70 71/78/71 79/87/79
f 71/78/71 73/80/73 80/88/80
f 74/82/74 75/89/75 76/90/76
f 76/91/76 81/92/81 82/93/82
f 78/94/78 83/95/83 84/96/84
f 85/97/85 86/98/86 87/99/87
f 86/98/86 88/100/88 89/101/89
f 90/102/90 80/103/80 91/104/91
f 92/105/92 76/106/76 93/107/93
f 83/95/83 79/108/79 94/109/94
f 3/3/3 95/110/95 96/111/96
f 97/112/97 84/96/84 98/113/98
f 79/114/79 90/102/90 99/115/99
f 90/102/90 100/116/100 99/115/99
f 101/117/101 3/3/3 102/118/102
f 97/112/97 98/113/98 85/97/85
f 103/119/103 96/111/96 104/120/104
f 102/118/102 103/119/103 105/121/105
f 99/115/99 106/122/106 88/100/88
f 94/123/94 99/115/99 88/100/88
f 98/113/98 94/123/94 85/97/85
f 107/124/107 84/96/84 2/125/2
f 82/93/82 108/126/108 109/127/109
f 93/107/93 82/128/82 109/129/109
f 100/116/100 91/104/91 4/130/4
f 106/122/106 100/116/100 101/131/101
f 110/132/110 106/122/106 102/133/102
f 89/101/89 110/132/110 105/134/105
f 87/99/87 89/101/89 104/135/104
f 96/136/96 97/112/97 87/99/87
f 95/137/95 84/96/84 97/112/97
f 15/15/15 14/14/14 25/27/25
f 24/26/24 15/15/15 33/36/33
f 32/35/32 24/26/24 34/37/34
f 41/44/41 32/35/32 48/53/48
f 55/60/55 41/44/41 48/53/48
f 63/69/63 55/60/55 49/54/49
f 72/79/72 63/69/63 57/63/57
f 73/80/73 72/79/72 65/72/65
f 80/88/80 73/80/73 92/138/92
f 91/104/91 80/103/80 93/107/93
f 4/130/4 91/104/91 111/139/111
f 109/140/109 1/1/1 111/141/111
f 112/142/112 1/1/1 109/140/109
f 108/126/108 107/124/107 112/143/112
f 81/92/81 78/94/78 108/126/108
f 67/74/67 69/76/69 81/144/81
f 66/73/66 68/75/68 67/74/67
f 58/64/58 60/66/60 68/75/68
f 43/48/43 52/57/52 60/66/60
f 42/47/42 37/40/37 52/57/52
f 27/30/27 28/31/28 42/47/42
f 18/20/18 20/22/20 27/30/27
f 7/7/7 19/21/19 18/20/18
f 6/6/6 8/8/8 19/21/19
f 2/2/2 95/110/95 3/3/3
f 3/3/3 101/117/101 4/4/4
f 17/19/17 5/5/5 7/7/7
f 19/21/19 8/8/8 10/10/10
f 11/11/11 13/13/13 10/10/10
f 12/12/12 22/24/22 13/13/13
f 22/24/22 12/12/12 15/15/15
f 25/27/25 16/16/16 17/18/17
f 26/29/26 17/19/17 18/20/18
f 10/10/10 21/23/21 20/22/20
f 13/13/13 23/25/23 21/23/21
f 22/24/22 30/33/30 23/25/23
f 30/33/30 22/24/22 24/26/24
f 33/36/33 25/27/25 26/28/26
f 35/38/35 26/29/26 27/30/27
f 21/23/21 29/32/29 28/31/28
f 23/25/23 31/34/31 29/32/29
f 30/33/30 39/42/39 31/34/31
f 39/42/39 30/33/30 32/35/32
f 26/28/26 35/45/35 34/37/34
f 27/30/27 42/47/42 36/39/36
f 29/32/29 44/49/44 37/40/37
f 44/49/44 29/32/29 38/41/38
f 38/41/38 31/34/31 40/43/40
f 40/43/40 39/42/39 41/44/41
f 48/53/48 34/37/34 36/46/36
f 50/55/50 36/39/36 43/48/43
f 52/57/52 37/40/37 45/50/45
f 45/50/45 44/49/44 46/51/46
f 40/43/40 47/52/47 46/51/46
f 41/44/41 55/60/55 47/52/47
f 36/46/36 50/62/50 49/54/49
f 43/48/43 58/64/58 51/56/51
f 60/66/60 52/57/52 53/58/53
f 53/58/53 45/50/45 54/59/54
f 47/52/47 56/61/56 54/59/54
f 55/60/55 63/69/63 56/61/56
f 50/62/50 51/71/51 57/63/57
f 58/64/58 66/73/66 59/65/59
f 68/75/68 60/66/60 61/67/61
f 61/67/61 53/58/53 62/68/62
f 56/61/56 64/70/64 62/68/62
f 63/69/63 72/79/72 64/70/64
f 51/71/51 59/81/59 65/72/65
f 75/83/75 59/65/59 67/74/67
f 61/67/61 77/85/77 69/76/69
f 77/85/77 61/67/61 70/77/70
f 70/77/70 62/68/62 71/78/71
f 71/78/71 64/70/64 73/80/73
f 59/81/59 75/89/75 74/82/74
f 67/74/67 81/144/81 76/84/76
f 77/85/77 83/145/83 78/86/78
f 83/145/83 77/85/77 79/87/79
f 71/78/71 90/146/90 79/87/79
f 90/146/90 71/78/71 80/88/80
f 92/138/92 74/82/74 76/90/76
f 81/92/81 108/126/108 82/93/82
f 107/124/107 78/94/78 84/96/84
f 86/98/86 89/101/89 87/99/87
f 88/100/88 110/132/110 89/101/89
f 100/116/100 90/102/90 91/104/91
f 76/106/76 82/128/82 93/107/93
f 98/147/98 83/95/83 94/109/94
f 103/119/103 3/3/3 96/111/96
f 84/96/84 83/95/83 98/113/98
f 94/123/94 79/114/79 99/115/99
f 100/116/100 106/122/106 99/115/99
f 3/3/3 103/119/103 102/118/102
f 87/99/87 97/112/97 85/97/85
f 113/148/113 103/119/103 104/120/104
f 103/119/103 113/148/113 105/121/105
f 106/122/106 110/132/110 88/100/88
f 86/98/86 94/123/94 88/100/88
f 94/123/94 86/98/86 85/97/85
f 84/96/84 95/137/95 2/125/2
f 108/126/108 112/143/112 109/127/109
f 111/139/111 93/107/93 109/129/109
f 101/131/101 100/116/100 4/130/4
f 102/133/102 106/122/106 101/131/101
f 105/134/105 110/132/110 102/133/102
f 113/149/113 89/101/89 105/134/105
f 89/101/89 113/149/113 104/135/104
f 104/135/104 96/136/96 87/99/87
f 96/136/96 95/137/95 97/112/97
f 14/14/14 16/16/16 25/27/25
f 15/15/15 25/27/25 33/36/33
f 24/26/24 33/36/33 34/37/34
f 32/35/32 34/37/34 48/53/48
f 49/54/49 55/60/55 48/53/48
f 57/63/57 63/69/63 49/54/49
f 65/72/65 72/79/72 57/63/57
f 74/82/74 73/80/73 65/72/65
f 73/80/73 74/82/74 92/138/92
f 80/103/80 92/105/92 93/107/93
f 91/104/91 93/107/93 111/139/111
f 1/1/1 4/4/4 111/141/111
f 2/2/2 1/1/1 112/142/112
f 107/124/107 2/125/2 112/143/112
f 78/94/78 107/124/107 108/126/108
f 69/76/69 78/86/78 81/144/81
f 68/75/68 69/76/69 67/74/67
f 66/73/66 58/64/58 68/75/68
f 58/64/58 43/48/43 60/66/60
f 43/48/43 42/47/42 52/57/52
f 28/31/28 37/40/37 42/47/42
f 20/22/20 28/31/28 27/30/27
f 19/21/19 20/22/20 18/20/18
f 7/7/7 6/6/6 19/21/19
