# Blender v2.65 (sub 0) OBJ File: ''
# www.blender.org
v -1.000000 -1.000000 1.000000
v -1.000000 -1.000000 -1.000000
v 1.000000 -1.000000 -1.000000
v 1.000000 -1.000000 1.000000
v -1.000000 1.000000 1.000000
v -1.000000 1.000000 -1.000000
v 1.000000 1.000000 -1.000000
v 1.000000 1.000000 1.000000
vt 0.000100 0.000100
vt 0.000100 0.999900
vt 0.999900 0.999900
vt 0.999900 0.000100
vn 1.000000 0.000000 -0.000000
vn 0.000000 0.000000 1.000000
vn -1.000000 0.000000 -0.000000
vn -0.000000 0.000000 -1.000000
vn 0.000000 -1.000000 0.000000
s off
f 5/1/1 1/2/1 2/3/1 6/4/1
f 6/1/2 2/2/2 3/3/2 7/4/2
f 7/3/3 3/4/3 4/1/3 8/2/3
f 1/1/4 5/2/4 8/3/4 4/4/4
f 8/4/5 5/1/5 6/2/5 7/3/5
